<?xml version="1.0" encoding="utf-8"?>
<!-- Generator: Adobe Illustrator 19.2.1, SVG Export Plug-In . SVG Version: 6.00 Build 0)  -->
<svg version="1.1" id="Layer_1" xmlns="http://www.w3.org/2000/svg" xmlns:xlink="http://www.w3.org/1999/xlink" x="0px" y="0px"
	 viewBox="0 0 178.176 150" style="enable-background:new 0 0 178.176 150;" xml:space="preserve">
<style type="text/css">
	.st0{display:none;fill:none;stroke:#FFFFFF;stroke-width:2;stroke-linecap:round;stroke-miterlimit:10;}
	.st1{fill:#D5D2E4;}
	.st2{fill:#43324E;}
	.st3{fill:#FFFFFF;}
	.st4{fill:#ECEDED;}
	.st5{fill:#E1E2E3;}
	.st6{fill:url(#SVGID_1_);}
	.st7{fill:url(#SVGID_2_);}
	.st8{fill:#414042;}
	.st9{fill:#96806A;}
	.st10{fill:#EDDFC7;}
	.st11{fill:#594A42;}
	.st12{fill:#E81C24;}
	.st13{fill:#00ADFF;}
</style>
<g>
	<path class="st12" d="M36.009,30c-0.553,0-1-0.448-1-1V12c0-0.552,0.447-1,1-1s1,0.448,1,1v17C37.009,29.552,36.562,30,36.009,30z"
		/>
	<path class="st12" d="M36.009,7.065c-0.553,0-1-0.448-1-1V1c0-0.552,0.447-1,1-1s1,0.448,1,1v5.065
		C37.009,6.618,36.562,7.065,36.009,7.065z"/>
	<path class="st12" d="M33.846,30.343c-0.422,0-0.813-0.269-0.951-0.691l-8.652-26.63c-0.171-0.525,0.117-1.089,0.643-1.26
		c0.524-0.169,1.088,0.117,1.26,0.642l8.652,26.63c0.171,0.525-0.117,1.089-0.643,1.26C34.052,30.327,33.948,30.343,33.846,30.343z"
		/>
	<path class="st12" d="M31.896,31.337c-0.31,0-0.614-0.143-0.81-0.412L14.628,8.272c-0.325-0.447-0.226-1.072,0.221-1.397
		c0.447-0.324,1.072-0.225,1.396,0.221l16.458,22.652c0.325,0.447,0.226,1.072-0.221,1.397C32.305,31.275,32.1,31.337,31.896,31.337
		z"/>
	<path class="st12" d="M30.345,32.886c-0.204,0-0.409-0.062-0.587-0.191L7.106,16.237c-0.446-0.325-0.546-0.95-0.221-1.397
		c0.324-0.446,0.949-0.546,1.396-0.221l22.652,16.458c0.446,0.325,0.546,0.95,0.221,1.397
		C30.959,32.743,30.654,32.886,30.345,32.886z"/>
	<path class="st12" d="M29.352,34.837c-0.103,0-0.206-0.016-0.309-0.049L21.7,32.402c-0.525-0.171-0.813-0.735-0.643-1.26
		s0.736-0.811,1.26-0.642l7.343,2.386c0.525,0.171,0.813,0.735,0.643,1.26C30.165,34.568,29.773,34.837,29.352,34.837z"/>
	<path class="st12" d="M18.01,31.152c-0.103,0-0.206-0.016-0.309-0.049L2.413,26.136c-0.525-0.171-0.813-0.735-0.643-1.26
		c0.171-0.525,0.734-0.812,1.26-0.642l15.288,4.967c0.525,0.171,0.813,0.735,0.643,1.26C18.823,30.883,18.432,31.152,18.01,31.152z"
		/>
	<path class="st12" d="M29.009,37h-28c-0.553,0-1-0.448-1-1s0.447-1,1-1h28c0.553,0,1,0.448,1,1S29.562,37,29.009,37z"/>
	<path class="st12" d="M2.722,47.816c-0.422,0-0.813-0.269-0.951-0.691c-0.171-0.525,0.117-1.089,0.643-1.26l26.63-8.652
		c0.524-0.171,1.088,0.117,1.26,0.642c0.171,0.525-0.117,1.089-0.643,1.26L3.03,47.767C2.928,47.8,2.824,47.816,2.722,47.816z"/>
	<path class="st12" d="M23.01,46.445c-0.31,0-0.614-0.143-0.81-0.412c-0.325-0.447-0.226-1.072,0.221-1.397l7.337-5.331
		c0.447-0.324,1.072-0.225,1.396,0.221c0.325,0.447,0.226,1.072-0.221,1.397l-7.337,5.331C23.419,46.383,23.214,46.445,23.01,46.445
		z"/>
	<path class="st12" d="M7.694,57.572c-0.31,0-0.614-0.143-0.81-0.412c-0.325-0.447-0.226-1.072,0.221-1.397l11.315-8.221
		c0.447-0.325,1.072-0.225,1.396,0.221c0.325,0.447,0.226,1.072-0.221,1.397L8.281,57.381C8.104,57.51,7.898,57.572,7.694,57.572z"
		/>
	<path class="st12" d="M15.436,65.315c-0.204,0-0.409-0.062-0.587-0.191c-0.446-0.325-0.546-0.95-0.221-1.397l16.458-22.652
		c0.324-0.447,0.948-0.546,1.396-0.221c0.446,0.325,0.546,0.95,0.221,1.397L16.245,64.903C16.05,65.172,15.745,65.315,15.436,65.315
		z"/>
	<path class="st12" d="M25.193,70.288c-0.103,0-0.206-0.016-0.309-0.049c-0.525-0.171-0.813-0.735-0.643-1.26l8.652-26.63
		c0.171-0.525,0.736-0.812,1.26-0.642c0.525,0.171,0.813,0.735,0.643,1.26l-8.652,26.63C26.007,70.019,25.615,70.288,25.193,70.288z
		"/>
	<path class="st12" d="M36.009,72c-0.553,0-1-0.448-1-1V43c0-0.552,0.447-1,1-1s1,0.448,1,1v28C37.009,71.552,36.562,72,36.009,72z"
		/>
	<path class="st12" d="M46.824,70.288c-0.422,0-0.813-0.269-0.951-0.691l-8.652-26.63c-0.171-0.525,0.117-1.089,0.643-1.26
		c0.523-0.171,1.088,0.117,1.26,0.642l8.652,26.63c0.171,0.525-0.117,1.089-0.643,1.26C47.03,70.271,46.927,70.288,46.824,70.288z"
		/>
	<path class="st12" d="M49.01,54.893c-0.31,0-0.614-0.143-0.81-0.412l-8.886-12.229c-0.325-0.447-0.226-1.072,0.221-1.397
		c0.446-0.324,1.072-0.225,1.396,0.221l8.886,12.229c0.325,0.447,0.226,1.072-0.221,1.397C49.419,54.831,49.214,54.893,49.01,54.893
		z"/>
	<path class="st12" d="M56.582,65.315c-0.31,0-0.614-0.143-0.81-0.412l-4.574-6.296c-0.325-0.447-0.226-1.072,0.221-1.397
		c0.447-0.324,1.072-0.225,1.396,0.221l4.574,6.296c0.325,0.447,0.226,1.072-0.221,1.397C56.991,65.253,56.786,65.315,56.582,65.315
		z"/>
	<path class="st12" d="M64.323,57.572c-0.204,0-0.409-0.062-0.587-0.191L41.084,40.923c-0.446-0.325-0.546-0.95-0.221-1.397
		c0.324-0.447,0.949-0.546,1.396-0.221l22.652,16.458c0.446,0.325,0.546,0.95,0.221,1.397
		C64.938,57.429,64.633,57.572,64.323,57.572z"/>
	<path class="st12" d="M69.296,47.816c-0.103,0-0.206-0.016-0.309-0.049l-26.63-8.652c-0.525-0.171-0.813-0.735-0.643-1.26
		s0.736-0.813,1.26-0.642l26.63,8.652c0.525,0.171,0.813,0.735,0.643,1.26C70.109,47.547,69.718,47.816,69.296,47.816z"/>
	<path class="st12" d="M47.009,37h-4c-0.553,0-1-0.448-1-1s0.447-1,1-1h4c0.553,0,1,0.448,1,1S47.562,37,47.009,37z"/>
	<path class="st12" d="M71.009,37h-19c-0.553,0-1-0.448-1-1s0.447-1,1-1h19c0.553,0,1,0.448,1,1S71.562,37,71.009,37z"/>
	<path class="st12" d="M42.666,34.837c-0.422,0-0.813-0.269-0.951-0.691c-0.171-0.525,0.117-1.089,0.643-1.26l26.63-8.652
		c0.522-0.171,1.089,0.117,1.26,0.642c0.171,0.525-0.117,1.089-0.643,1.26l-26.63,8.652C42.872,34.821,42.769,34.837,42.666,34.837z
		"/>
	<path class="st12" d="M41.673,32.886c-0.31,0-0.614-0.143-0.81-0.412c-0.325-0.447-0.226-1.072,0.221-1.397l22.652-16.458
		c0.447-0.324,1.072-0.225,1.396,0.221c0.325,0.447,0.226,1.072-0.221,1.397L42.26,32.695
		C42.082,32.824,41.877,32.886,41.673,32.886z"/>
	<path class="st12" d="M40.122,31.337c-0.204,0-0.409-0.062-0.587-0.191c-0.446-0.325-0.546-0.95-0.221-1.397L55.772,7.097
		c0.323-0.447,0.948-0.546,1.396-0.221c0.446,0.325,0.546,0.95,0.221,1.397L40.932,30.925
		C40.736,31.194,40.432,31.337,40.122,31.337z"/>
	<path class="st12" d="M38.172,30.343c-0.103,0-0.206-0.016-0.309-0.049c-0.525-0.171-0.813-0.735-0.643-1.26l8.652-26.63
		c0.171-0.525,0.735-0.811,1.26-0.642c0.525,0.171,0.813,0.735,0.643,1.26l-8.652,26.63C38.985,30.074,38.594,30.343,38.172,30.343z
		"/>
	<path class="st13" d="M127.009,67.866c-0.553,0-1-0.448-1-1V41c0-0.552,0.447-1,1-1s1,0.448,1,1v25.866
		C128.009,67.418,127.562,67.866,127.009,67.866z"/>
	<path class="st13" d="M127.009,34.447c-0.553,0-1-0.448-1-1v-7.381c0-0.552,0.447-1,1-1s1,0.448,1,1v7.381
		C128.009,34,127.562,34.447,127.009,34.447z"/>
	<path class="st13" d="M123.856,68.366c-0.422,0-0.813-0.269-0.951-0.691l-12.607-38.803c-0.171-0.525,0.117-1.089,0.643-1.26
		c0.522-0.17,1.089,0.117,1.26,0.642l12.607,38.803c0.171,0.525-0.117,1.089-0.643,1.26
		C124.063,68.35,123.959,68.366,123.856,68.366z"/>
	<path class="st13" d="M121.015,69.814c-0.31,0-0.614-0.143-0.81-0.412L96.224,36.394c-0.325-0.447-0.226-1.072,0.221-1.397
		c0.447-0.324,1.072-0.225,1.396,0.221l23.981,33.008c0.325,0.447,0.226,1.072-0.221,1.397
		C121.424,69.752,121.219,69.814,121.015,69.814z"/>
	<path class="st13" d="M118.756,72.071c-0.204,0-0.409-0.062-0.587-0.191L85.161,47.898c-0.446-0.325-0.546-0.95-0.221-1.397
		c0.324-0.446,0.948-0.546,1.396-0.221l33.008,23.982c0.446,0.325,0.546,0.95,0.221,1.397
		C119.37,71.928,119.065,72.071,118.756,72.071z"/>
	<path class="st13" d="M117.308,74.915c-0.103,0-0.206-0.016-0.309-0.049L106.3,71.389c-0.525-0.171-0.813-0.735-0.643-1.26
		s0.734-0.811,1.26-0.642l10.699,3.477c0.525,0.171,0.813,0.735,0.643,1.26C118.121,74.646,117.73,74.915,117.308,74.915z"/>
	<path class="st13" d="M100.781,69.545c-0.103,0-0.206-0.016-0.309-0.049l-22.276-7.238c-0.525-0.171-0.813-0.735-0.643-1.26
		c0.171-0.525,0.734-0.812,1.26-0.642l22.276,7.238c0.525,0.171,0.813,0.735,0.643,1.26
		C101.595,69.276,101.203,69.545,100.781,69.545z"/>
	<path class="st13" d="M116.809,78.066h-40.8c-0.553,0-1-0.447-1-1s0.447-1,1-1h40.8c0.553,0,1,0.447,1,1
		S117.361,78.066,116.809,78.066z"/>
	<path class="st13" d="M78.505,93.826c-0.422,0-0.813-0.269-0.951-0.691c-0.171-0.524,0.117-1.089,0.643-1.26l38.803-12.608
		c0.524-0.171,1.089,0.116,1.26,0.643c0.171,0.524-0.117,1.089-0.643,1.26L78.814,93.777C78.711,93.811,78.607,93.826,78.505,93.826
		z"/>
	<path class="st13" d="M108.066,91.829c-0.31,0-0.614-0.143-0.81-0.412c-0.325-0.447-0.226-1.072,0.221-1.396l10.691-7.768
		c0.448-0.325,1.072-0.227,1.396,0.221c0.325,0.447,0.226,1.072-0.221,1.396l-10.691,7.768
		C108.476,91.767,108.271,91.829,108.066,91.829z"/>
	<path class="st13" d="M85.75,108.043c-0.31,0-0.614-0.143-0.81-0.412c-0.325-0.447-0.226-1.072,0.221-1.396l16.488-11.979
		c0.447-0.324,1.072-0.227,1.396,0.221c0.325,0.447,0.226,1.072-0.221,1.396l-16.488,11.979
		C86.159,107.98,85.954,108.043,85.75,108.043z"/>
	<path class="st13" d="M97.031,119.326c-0.204,0-0.409-0.062-0.587-0.191c-0.446-0.324-0.546-0.949-0.221-1.396l23.981-33.008
		c0.323-0.447,0.948-0.546,1.396-0.221c0.446,0.324,0.546,0.949,0.221,1.396l-23.981,33.008
		C97.646,119.184,97.341,119.326,97.031,119.326z"/>
	<path class="st13" d="M111.249,126.57c-0.103,0-0.206-0.016-0.309-0.049c-0.525-0.171-0.813-0.735-0.643-1.26l12.607-38.804
		c0.171-0.525,0.734-0.812,1.26-0.643c0.525,0.171,0.813,0.735,0.643,1.26L112.2,125.879
		C112.063,126.302,111.671,126.57,111.249,126.57z"/>
	<path class="st13" d="M127.009,129.066c-0.553,0-1-0.447-1-1V87.266c0-0.553,0.447-1,1-1s1,0.447,1,1v40.801
		C128.009,128.619,127.562,129.066,127.009,129.066z"/>
	<path class="st13" d="M142.769,126.57c-0.422,0-0.813-0.269-0.951-0.691L129.21,87.075c-0.171-0.524,0.117-1.089,0.643-1.26
		c0.524-0.169,1.088,0.117,1.26,0.643l12.607,38.804c0.171,0.524-0.117,1.089-0.643,1.26
		C142.975,126.555,142.871,126.57,142.769,126.57z"/>
	<path class="st13" d="M145.952,104.139c-0.31,0-0.614-0.143-0.81-0.412l-12.947-17.82c-0.325-0.447-0.226-1.072,0.221-1.396
		c0.447-0.324,1.072-0.227,1.396,0.221l12.947,17.82c0.325,0.447,0.226,1.072-0.221,1.396
		C146.361,104.076,146.156,104.139,145.952,104.139z"/>
	<path class="st13" d="M156.986,119.326c-0.31,0-0.614-0.143-0.81-0.412l-6.665-9.175c-0.325-0.447-0.226-1.072,0.221-1.396
		c0.448-0.325,1.073-0.226,1.396,0.221l6.665,9.175c0.325,0.447,0.226,1.072-0.221,1.396
		C157.396,119.264,157.189,119.326,156.986,119.326z"/>
	<path class="st13" d="M168.268,108.043c-0.204,0-0.409-0.062-0.587-0.191L134.673,83.87c-0.446-0.324-0.546-0.949-0.221-1.396
		c0.324-0.447,0.948-0.546,1.396-0.221l33.008,23.981c0.446,0.324,0.546,0.949,0.221,1.396
		C168.882,107.9,168.577,108.043,168.268,108.043z"/>
	<path class="st13" d="M175.513,93.826c-0.103,0-0.206-0.016-0.309-0.049l-38.803-12.608c-0.525-0.171-0.813-0.735-0.643-1.26
		c0.171-0.525,0.734-0.812,1.26-0.643l38.803,12.608c0.525,0.171,0.813,0.735,0.643,1.26
		C176.326,93.558,175.935,93.826,175.513,93.826z"/>
	<path class="st13" d="M143.037,78.066h-5.828c-0.553,0-1-0.447-1-1s0.447-1,1-1h5.828c0.553,0,1,0.447,1,1
		S143.59,78.066,143.037,78.066z"/>
	<path class="st13" d="M178.009,78.066h-30c-0.553,0-1-0.447-1-1s0.447-1,1-1h30c0.553,0,1,0.447,1,1S178.562,78.066,178.009,78.066
		z"/>
	<path class="st13" d="M136.71,74.915c-0.422,0-0.813-0.269-0.951-0.691c-0.171-0.525,0.117-1.089,0.643-1.26l38.803-12.608
		c0.524-0.17,1.089,0.117,1.26,0.642c0.171,0.525-0.117,1.089-0.643,1.26l-38.803,12.608
		C136.916,74.898,136.813,74.915,136.71,74.915z"/>
	<path class="st13" d="M135.262,72.071c-0.31,0-0.614-0.143-0.81-0.412c-0.325-0.447-0.226-1.072,0.221-1.397l33.008-23.982
		c0.447-0.325,1.072-0.225,1.396,0.221c0.325,0.447,0.226,1.072-0.221,1.397L135.849,71.88
		C135.671,72.009,135.466,72.071,135.262,72.071z"/>
	<path class="st13" d="M133.003,69.814c-0.204,0-0.409-0.062-0.587-0.191c-0.446-0.325-0.546-0.95-0.221-1.397l23.981-33.008
		c0.323-0.446,0.949-0.546,1.396-0.221c0.446,0.325,0.546,0.95,0.221,1.397l-23.981,33.008
		C133.617,69.671,133.313,69.814,133.003,69.814z"/>
	<path class="st13" d="M130.161,68.366c-0.103,0-0.206-0.016-0.309-0.049c-0.525-0.171-0.813-0.735-0.643-1.26l12.607-38.803
		c0.171-0.525,0.736-0.811,1.26-0.642c0.525,0.171,0.813,0.735,0.643,1.26l-12.607,38.803
		C130.975,68.097,130.583,68.366,130.161,68.366z"/>
	<path class="st12" d="M56.011,82.782c-0.386,0-0.753-0.224-0.917-0.6l-2.937-6.712c-0.222-0.506,0.009-1.096,0.516-1.317
		c0.505-0.222,1.096,0.009,1.316,0.515l2.937,6.713c0.222,0.506-0.009,1.095-0.516,1.316C56.28,82.756,56.145,82.782,56.011,82.782z
		"/>
	<path class="st12" d="M64.424,101.997c-0.386,0-0.753-0.224-0.917-0.599L57.844,88.47c-0.222-0.506,0.009-1.096,0.515-1.317
		c0.51-0.223,1.097,0.01,1.317,0.515l5.663,12.929c0.222,0.506-0.009,1.096-0.515,1.317
		C64.693,101.971,64.558,101.997,64.424,101.997z"/>
	<path class="st12" d="M85.443,149.989c-0.386,0-0.753-0.224-0.917-0.599l-18.432-42.083c-0.222-0.506,0.009-1.096,0.515-1.317
		c0.509-0.223,1.097,0.011,1.317,0.515l18.432,42.083c0.222,0.506-0.009,1.096-0.515,1.317
		C85.713,149.963,85.577,149.989,85.443,149.989z"/>
	<path class="st3" d="M27.509,99c-0.276,0-0.5-0.224-0.5-0.5v-9.467c0-0.276,0.224-0.5,0.5-0.5s0.5,0.224,0.5,0.5V98.5
		C28.009,98.776,27.785,99,27.509,99z"/>
	<path class="st3" d="M27.509,87.533c-0.276,0-0.5-0.224-0.5-0.5V84.5c0-0.276,0.224-0.5,0.5-0.5s0.5,0.224,0.5,0.5v2.533
		C28.009,87.31,27.785,87.533,27.509,87.533z"/>
	<path class="st3" d="M26.427,99.171c-0.211,0-0.407-0.134-0.476-0.346l-4.326-13.314c-0.085-0.263,0.059-0.545,0.321-0.63
		s0.545,0.059,0.63,0.321l4.326,13.314c0.085,0.263-0.059,0.545-0.321,0.63C26.53,99.163,26.478,99.171,26.427,99.171z"/>
	<path class="st3" d="M25.451,99.668c-0.154,0-0.307-0.071-0.404-0.206l-8.229-11.326c-0.162-0.224-0.113-0.536,0.11-0.698
		c0.223-0.161,0.535-0.114,0.698,0.11l8.229,11.326c0.162,0.224,0.113,0.536-0.11,0.698C25.656,99.637,25.554,99.668,25.451,99.668z
		"/>
	<path class="st3" d="M24.677,100.442c-0.103,0-0.205-0.031-0.294-0.096l-11.326-8.229c-0.224-0.162-0.272-0.475-0.11-0.698
		c0.162-0.225,0.477-0.271,0.698-0.11l11.326,8.229c0.224,0.162,0.272,0.475,0.11,0.698
		C24.983,100.371,24.831,100.442,24.677,100.442z"/>
	<path class="st3" d="M24.18,101.418c-0.051,0-0.104-0.008-0.154-0.024l-3.671-1.192c-0.263-0.085-0.406-0.367-0.321-0.63
		s0.369-0.406,0.63-0.321l3.671,1.192c0.263,0.085,0.406,0.367,0.321,0.63C24.587,101.284,24.391,101.418,24.18,101.418z"/>
	<path class="st3" d="M18.51,99.576c-0.051,0-0.104-0.008-0.154-0.024l-7.645-2.484c-0.263-0.085-0.406-0.367-0.321-0.63
		s0.369-0.405,0.63-0.321l7.645,2.484c0.263,0.085,0.406,0.367,0.321,0.63C18.917,99.442,18.721,99.576,18.51,99.576z"/>
	<path class="st3" d="M24.009,102.5h-14c-0.276,0-0.5-0.224-0.5-0.5s0.224-0.5,0.5-0.5h14c0.276,0,0.5,0.224,0.5,0.5
		S24.285,102.5,24.009,102.5z"/>
	<path class="st3" d="M10.865,107.908c-0.211,0-0.407-0.134-0.476-0.346c-0.085-0.263,0.059-0.545,0.321-0.63l13.314-4.326
		c0.263-0.084,0.545,0.059,0.63,0.321s-0.059,0.545-0.321,0.63l-13.314,4.326C10.969,107.9,10.916,107.908,10.865,107.908z"/>
	<path class="st3" d="M21.009,107.223c-0.154,0-0.307-0.071-0.404-0.206c-0.162-0.224-0.113-0.536,0.11-0.698l3.668-2.665
		c0.223-0.161,0.535-0.114,0.698,0.11c0.162,0.224,0.113,0.536-0.11,0.698l-3.668,2.665
		C21.214,107.191,21.111,107.223,21.009,107.223z"/>
	<path class="st3" d="M13.351,112.786c-0.154,0-0.307-0.071-0.404-0.206c-0.162-0.224-0.113-0.536,0.11-0.698l5.658-4.11
		c0.223-0.161,0.536-0.114,0.698,0.11c0.162,0.224,0.113,0.536-0.11,0.698l-5.658,4.11
		C13.556,112.755,13.453,112.786,13.351,112.786z"/>
	<path class="st3" d="M17.223,116.658c-0.103,0-0.205-0.031-0.294-0.096c-0.224-0.162-0.272-0.475-0.11-0.698l8.229-11.326
		c0.162-0.225,0.477-0.271,0.698-0.11c0.224,0.162,0.272,0.475,0.11,0.698l-8.229,11.326
		C17.529,116.587,17.377,116.658,17.223,116.658z"/>
	<path class="st3" d="M22.101,119.144c-0.051,0-0.104-0.008-0.154-0.024c-0.263-0.085-0.406-0.367-0.321-0.63l4.326-13.314
		c0.085-0.263,0.368-0.405,0.63-0.321c0.263,0.085,0.406,0.367,0.321,0.63l-4.326,13.314
		C22.508,119.01,22.312,119.144,22.101,119.144z"/>
	<path class="st3" d="M27.509,120c-0.276,0-0.5-0.224-0.5-0.5v-14c0-0.276,0.224-0.5,0.5-0.5s0.5,0.224,0.5,0.5v14
		C28.009,119.776,27.785,120,27.509,120z"/>
	<path class="st3" d="M32.917,119.144c-0.211,0-0.407-0.134-0.476-0.346l-4.326-13.314c-0.085-0.263,0.059-0.545,0.321-0.63
		c0.263-0.084,0.545,0.059,0.63,0.321l4.326,13.314c0.085,0.263-0.059,0.545-0.321,0.63
		C33.021,119.136,32.968,119.144,32.917,119.144z"/>
	<path class="st3" d="M34.009,111.446c-0.154,0-0.307-0.071-0.404-0.206l-4.442-6.114c-0.162-0.224-0.113-0.536,0.11-0.698
		c0.223-0.161,0.535-0.114,0.698,0.11l4.442,6.114c0.162,0.224,0.113,0.536-0.11,0.698
		C34.214,111.415,34.111,111.446,34.009,111.446z"/>
	<path class="st3" d="M37.795,116.658c-0.154,0-0.307-0.071-0.404-0.206l-2.287-3.148c-0.162-0.224-0.113-0.536,0.11-0.698
		c0.223-0.162,0.535-0.113,0.698,0.11l2.287,3.148c0.162,0.224,0.113,0.536-0.11,0.698C38,116.627,37.897,116.658,37.795,116.658z"
		/>
	<path class="st3" d="M41.667,112.786c-0.103,0-0.205-0.031-0.294-0.096l-11.326-8.229c-0.224-0.162-0.272-0.475-0.11-0.698
		c0.162-0.225,0.477-0.271,0.698-0.11l11.326,8.229c0.224,0.162,0.272,0.475,0.11,0.698
		C41.974,112.715,41.821,112.786,41.667,112.786z"/>
	<path class="st3" d="M44.152,107.908c-0.051,0-0.104-0.008-0.154-0.024l-13.314-4.326c-0.263-0.085-0.406-0.367-0.321-0.63
		s0.368-0.405,0.63-0.321l13.314,4.326c0.263,0.085,0.406,0.367,0.321,0.63C44.56,107.774,44.363,107.908,44.152,107.908z"/>
	<path class="st3" d="M33.009,102.5h-2c-0.276,0-0.5-0.224-0.5-0.5s0.224-0.5,0.5-0.5h2c0.276,0,0.5,0.224,0.5,0.5
		S33.285,102.5,33.009,102.5z"/>
	<path class="st3" d="M45.009,102.5h-9.5c-0.276,0-0.5-0.224-0.5-0.5s0.224-0.5,0.5-0.5h9.5c0.276,0,0.5,0.224,0.5,0.5
		S45.285,102.5,45.009,102.5z"/>
	<path class="st3" d="M30.838,101.418c-0.211,0-0.407-0.134-0.476-0.346c-0.085-0.263,0.059-0.545,0.321-0.63l13.314-4.326
		c0.261-0.084,0.545,0.059,0.63,0.321s-0.059,0.545-0.321,0.63l-13.314,4.326C30.941,101.41,30.889,101.418,30.838,101.418z"/>
	<path class="st3" d="M30.341,100.442c-0.154,0-0.307-0.071-0.404-0.206c-0.162-0.224-0.113-0.536,0.11-0.698l11.326-8.229
		c0.223-0.161,0.535-0.114,0.698,0.11c0.162,0.224,0.113,0.536-0.11,0.698l-11.326,8.229
		C30.546,100.411,30.443,100.442,30.341,100.442z"/>
	<path class="st3" d="M29.566,99.668c-0.103,0-0.205-0.031-0.294-0.096c-0.224-0.162-0.272-0.475-0.11-0.698l8.229-11.326
		c0.163-0.225,0.476-0.271,0.698-0.11c0.224,0.162,0.272,0.475,0.11,0.698l-8.229,11.326C29.873,99.597,29.721,99.668,29.566,99.668
		z"/>
	<path class="st3" d="M28.591,99.171c-0.051,0-0.104-0.008-0.154-0.024c-0.263-0.085-0.406-0.367-0.321-0.63l4.326-13.314
		c0.085-0.263,0.367-0.406,0.63-0.321s0.406,0.367,0.321,0.63l-4.326,13.314C28.998,99.037,28.802,99.171,28.591,99.171z"/>
</g>
</svg>
