<?xml version="1.0" encoding="utf-8"?>
<!-- Generator: Adobe Illustrator 19.2.1, SVG Export Plug-In . SVG Version: 6.00 Build 0)  -->
<svg version="1.1" id="Layer_1" xmlns="http://www.w3.org/2000/svg" xmlns:xlink="http://www.w3.org/1999/xlink" x="0px" y="0px"
	 viewBox="0 0 41 150" style="enable-background:new 0 0 41 150;" xml:space="preserve">
<style type="text/css">
	.st0{fill:#7C634F;}
	.st1{fill:#D0D2D3;}
	.st2{fill:#6ECAF3;}
	.st3{fill:#CED0D1;}
	.st4{fill:#F6CC78;}
	.st5{fill:#BBBDBF;}
	.st6{fill:#58595B;}
	.st7{fill:#FFB4D3;}
	.st8{fill:#A6A8AB;}
	.st9{opacity:0.2;fill:#FFFFFF;}
	.st10{fill:#4F3E31;}
	.st11{fill:#EBEBEC;}
	.st12{fill:#E0E1E2;}
	.st13{fill:#D1D2D4;}
	.st14{fill:#534235;}
	.st15{fill:#4A3A2E;}
	.st16{fill:#F8C1D9;}
	.st17{fill:#FFFFFF;}
	.st18{fill:#E4E5E6;}
	.st19{fill:#836854;}
	.st20{fill:#745D4A;}
	.st21{fill:#F3A5C8;}
	.st22{fill:#66493C;}
	.st23{fill:#6F5043;}
	.st24{fill:#4C3C34;}
	.st25{fill:#F4F4F6;}
	.st26{fill:#F8F8F9;}
	.st27{fill:#EBEBEE;}
	.st28{fill:#DFDFE0;}
	.st29{fill:#86888A;}
	.st30{fill:#A54B94;}
	.st31{fill:#D4BC9B;}
	.st32{fill:#A55498;}
	.st33{fill:#D3A561;}
	.st34{fill:#C7B192;}
	.st35{fill:#DCC6A9;}
	.st36{fill:#D3AD72;}
	.st37{fill:#CAB4FF;}
	.st38{fill:#C6A9FF;}
	.st39{fill:#765C60;}
	.st40{fill:#864481;}
	.st41{fill:#AE8950;}
	.st42{fill:#AA8CE1;}
	.st43{fill:#846255;}
	.st44{fill:#6AAB98;}
	.st45{fill:#F5887A;}
	.st46{fill:#8C685B;}
	.st47{fill:#77584D;}
	.st48{fill:#F69788;}
	.st49{fill:#E07D70;}
	.st50{fill:#7CB0A7;}
	.st51{fill:#619E8D;}
	.st52{fill:#70524E;}
	.st53{fill:#A78AF2;}
	.st54{fill:#50DB7E;}
	.st55{fill:#FBC2F2;}
	.st56{fill:#ECF4F9;}
	.st57{fill:#987EE7;}
	.st58{fill:#FBB0F2;}
	.st59{fill:#AC92FF;}
	.st60{fill:#5C76AA;}
	.st61{fill:#00B8ED;}
	.st62{fill:#EFEFF0;}
	.st63{fill:#CDAA6F;}
	.st64{fill:#5E8664;}
	.st65{fill:#644F3B;}
	.st66{fill:#785E47;}
	.st67{fill:#5C4936;}
	.st68{fill:#6A533E;}
	.st69{fill:#80654D;}
	.st70{fill:#544835;}
	.st71{fill:#D8468E;}
	.st72{fill:#5AD83F;}
	.st73{fill:#47C93F;}
	.st74{fill:#1CB14B;}
	.st75{fill:#D1FF25;}
	.st76{fill:#FF86B5;}
	.st77{fill:#F086B5;}
	.st78{fill:#F0F1F1;}
	.st79{fill:#F580B5;}
	.st80{fill:#E5E6E7;}
	.st81{fill:#E67CAD;}
	.st82{fill:#D46CAD;}
	.st83{fill:#796F6C;}
	.st84{fill:#0E86FE;}
	.st85{fill:#C93131;}
	.st86{fill:#B83131;}
	.st87{fill:#E5E5E5;}
	.st88{fill:#0E7FFB;}
	.st89{fill:#DBDCDD;}
	.st90{fill:none;stroke:#8D382D;stroke-width:4;stroke-linecap:round;stroke-linejoin:round;stroke-miterlimit:10;}
	.st91{fill:none;stroke:#0E6CFE;stroke-width:4;stroke-linecap:round;stroke-linejoin:round;stroke-miterlimit:10;}
	.st92{fill:none;stroke:#BBBDBF;stroke-width:4;stroke-linecap:round;stroke-linejoin:round;stroke-miterlimit:10;}
	.st93{fill:none;stroke:#A6A8AB;stroke-width:4;stroke-linecap:round;stroke-linejoin:round;stroke-miterlimit:10;}
	.st94{fill:#701F2F;}
	.st95{fill:#1C3B71;}
	.st96{fill:#214181;}
	.st97{fill:#621221;}
	.st98{fill:#231F20;}
	.st99{fill:#31DCFF;}
	.st100{fill:#80192B;}
	.st101{fill:#80994A;}
	.st102{fill:#6B192B;}
	.st103{fill:#5E7031;}
	.st104{fill:#58192B;}
</style>
<g>
	<g>
		<path class="st100" d="M38.91,28.76H39v1.87C39,40.78,30.22,49,20,49c-5.11,0-9.25-2.06-12.6-5.38
			c-3.35-3.33-5.42-7.92-5.42-12.99V2l7.79,5.64l1.2,0.87l9.35,6.78L38.91,28.76z"/>
		<polygon class="st101" points="29.45,74.46 20.02,79.9 20.01,69.01 		"/>
		<path class="st100" d="M10.97,8.51l-1.2-0.87l0.31-0.42C12.33,4.06,16.02,2,20.2,2c4.43,0,8.33,2.33,10.51,5.84l-0.77,0.54
			l-9.45,6.68l-0.17,0.23L10.97,8.51z"/>
		<polygon class="st101" points="29.45,125.46 20.06,130.88 20.05,120.03 		"/>
		<polygon class="st101" points="20.03,95.09 20.04,106 19.58,106 10.13,100.54 19.58,95.09 		"/>
		<polygon class="st100" points="30.71,7.84 38.97,2 39,2 39,28.76 38.91,28.76 20.32,15.29 20.49,15.06 29.94,8.38 		"/>
	</g>
	<path class="st102" d="M20.44,43.62c-3.35-3.33-5.42-7.92-5.42-12.99V11.432L10.99,8.51l-1.2-0.87L2,2v28.63
		c0,5.07,2.07,9.66,5.42,12.99c3.35,3.32,7.49,5.38,12.6,5.38c2.323,0,4.563-0.443,6.65-1.218
		C24.342,46.85,22.269,45.432,20.44,43.62z"/>
</g>
<g>
	<path class="st103" d="M30.451,123.729l-8.401-4.854l-0.026-37.822l8.426-4.861c0.619-0.356,1.001-1.017,1.001-1.731
		c0-0.715-0.381-1.375-1-1.732l-8.436-4.87L22,48.999C21.999,47.895,21.105,47,20,47h-0.001c-1.104,0-2,0.896-1.999,2.001
		l0.014,19.909c-0.002,0.043-0.001,0.086,0,0.129l0.007,10.656c-0.014,0.132-0.013,0.266,0,0.4l0.01,13.58l-8.9,5.133
		c-0.619,0.356-1.001,1.017-1.001,1.731s0.381,1.375,0.999,1.732l8.912,5.15l0.016,23.125c-0.035,0.21-0.034,0.425,0,0.642
		l0.012,16.813c0.001,1.104,0.896,1.999,2,1.999h0.001c1.104-0.001,2-0.896,1.999-2.001l-0.011-15.963l8.391-4.844
		c0.618-0.357,1-1.018,1-1.732C31.45,124.747,31.069,124.086,30.451,123.729z M25.449,74.46l-3.429,1.979l-0.003-3.961L25.449,74.46
		z M14.13,100.541l3.905-2.252l0.003,4.51L14.13,100.541z M22.055,127.419l-0.003-3.923l3.398,1.963L22.055,127.419z"/>
	<g>
		<path class="st104" d="M38.97,0c-0.413,0-0.817,0.128-1.154,0.367l-6.657,4.705C28.451,1.866,24.489,0,20.2,0
			c-4.154,0-8.091,1.813-10.811,4.898L3.153,0.38C2.543-0.061,1.74-0.124,1.071,0.219C0.401,0.561-0.02,1.249-0.02,2v28.63
			c0,5.438,2.135,10.556,6.013,14.411C9.983,48.995,14.696,51,20,51c11.383,0,21-9.328,21-20.37V2C41,0.895,40.075,0,38.97,0z
			 M20.2,4c2.974,0,5.717,1.255,7.662,3.402l-7.603,5.373l-7.612-5.516C14.6,5.202,17.327,4,20.2,4z M37,30.63
			C37,39.503,29.215,47,20,47c-4.271,0-7.933-1.57-11.19-4.798c-3.115-3.096-4.83-7.206-4.83-11.572V5.917L37,29.847V30.63z
			 M37,24.907l-13.321-9.653l7.816-5.522c0.24-0.098,0.464-0.243,0.659-0.438c0.021-0.021,0.036-0.045,0.056-0.067L37,5.842V24.907z
			"/>
		<path class="st104" d="M21.076,42c0.011,0,0.021,0,0.032,0c1.104-0.004,1.997-0.904,1.992-2.008C23.095,38.89,22.201,38,21.1,38
			c-0.012,0-0.018,0-0.025,0c-3.688,0-7.958-4.804-8.075-8.072c-0.04-1.103-0.926-1.981-2.071-1.927
			c-1.104,0.04-1.966,0.966-1.927,2.07C9.189,35.291,15.073,42,21.076,42z"/>
	</g>
</g>
</svg>
